<svg width="40" height="40" viewBox="0 0 40 40" fill="none" xmlns="http://www.w3.org/2000/svg">
<path d="M12 29.3334C14.9455 29.3334 17.3333 26.9456 17.3333 24.0001C17.3333 21.0546 14.9455 18.6667 12 18.6667C9.05447 18.6667 6.66666 21.0546 6.66666 24.0001C6.66666 26.9456 9.05447 29.3334 12 29.3334Z" fill="white"/>
<path d="M24.6665 33.3334C26.5075 33.3334 27.9999 31.841 27.9999 30.0001C27.9999 28.1591 26.5075 26.6667 24.6665 26.6667C22.8256 26.6667 21.3332 28.1591 21.3332 30.0001C21.3332 31.841 22.8256 33.3334 24.6665 33.3334Z" fill="white"/>
<path d="M25.3332 22.6667C29.7515 22.6667 33.3332 19.085 33.3332 14.6667C33.3332 10.2485 29.7515 6.66675 25.3332 6.66675C20.915 6.66675 17.3333 10.2485 17.3333 14.6667C17.3333 19.085 20.915 22.6667 25.3332 22.6667Z" fill="white"/>
</svg>
