<svg width="40" height="40" viewBox="0 0 40 40" fill="none" xmlns="http://www.w3.org/2000/svg">
<path d="M15.6667 17.4999L23.6167 3.73325C22.45 3.48325 21.25 3.33325 20 3.33325C16 3.33325 12.3334 4.74992 9.46671 7.08325L15.5667 17.6666L15.6667 17.4999ZM35.9 14.9999C34.3667 10.1333 30.65 6.23325 25.9 4.43325L19.8 14.9999H35.9ZM36.3334 16.6666H23.85L24.3334 17.4999L32.2667 31.2499C35 28.2833 36.6667 24.3499 36.6667 19.9999C36.6667 18.8499 36.55 17.7499 36.3334 16.6666ZM14.2334 19.9999L7.73337 8.74992C5.01671 11.7166 3.33337 15.6499 3.33337 19.9999C3.33337 21.1499 3.45004 22.2499 3.66671 23.3333H16.15L14.2334 19.9999ZM4.10004 24.9999C5.63337 29.8666 9.35004 33.7666 14.1 35.5666L20.2 24.9999H4.10004ZM22.8834 24.9999L16.3834 36.2666C17.55 36.5166 18.75 36.6666 20 36.6666C24 36.6666 27.6667 35.2499 30.5334 32.9166L24.4334 22.3333L22.8834 24.9999Z" fill="white"/>
</svg>
