<svg xmlns="http://www.w3.org/2000/svg" xml:space="preserve" viewBox="0 0 101 101" id="clip">
  <path fill="#fff" d="M40.1 84.4c5.4 0 10.5-2.1 14.4-5.9l12.6-12.6c.9-.9.9-2.5 0-3.4s-2.5-.9-3.4 0L51.1 75c-2.9 2.9-6.8 4.5-11 4.5s-8-1.6-11-4.5-4.5-6.8-4.5-11 1.6-8 4.5-11l28.5-28.5c2.1-2.1 4.8-3.2 7.8-3.2 2.9 0 5.7 1.1 7.8 3.2 2.1 2.1 3.2 4.8 3.2 7.8 0 2.9-1.1 5.7-3.2 7.8L44.6 68.7c-2.5 2.5-6.7 2.5-9.2 0-1.2-1.2-1.9-2.9-1.9-4.6 0-1.7.7-3.4 1.9-4.6l12.7-12.7c.9-.9.9-2.5 0-3.4s-2.5-.9-3.4 0L32.1 56.1c-2.1 2.1-3.3 5-3.3 8s1.2 5.9 3.3 8c4.4 4.4 11.6 4.4 16 0l28.5-28.5c3-3 4.6-6.9 4.6-11.2s-1.6-8.2-4.6-11.2c-6.1-6.1-16.2-6.1-22.3 0L25.8 49.7c-3.8 3.8-5.9 8.9-5.9 14.4 0 5.4 2.1 10.5 5.9 14.4 3.8 3.8 8.9 5.9 14.3 5.9z"></path>
</svg>
