<svg width="40" height="40" viewBox="0 0 40 40" fill="none" xmlns="http://www.w3.org/2000/svg">
<path d="M32.25 16.7334C31.1167 10.9834 26.0667 6.66675 20 6.66675C15.1833 6.66675 11.0167 9.40008 8.93333 13.4001C3.91667 13.9334 0 18.1667 0 23.3334C0 28.8501 4.48333 33.3334 10 33.3334H31.6667C36.2667 33.3334 40 29.6001 40 25.0001C40 20.6001 36.5833 17.0334 32.25 16.7334ZM31.6667 30.0001H10C6.31667 30.0001 3.33333 27.0167 3.33333 23.3334C3.33333 19.6501 6.31667 16.6667 10 16.6667C13.6833 16.6667 16.6667 19.6501 16.6667 23.3334H20C20 18.7334 16.9 14.8667 12.6667 13.7001C14.35 11.4667 17 10.0001 20 10.0001C25.05 10.0001 29.1667 14.1167 29.1667 19.1667V20.0001H31.6667C34.4167 20.0001 36.6667 22.2501 36.6667 25.0001C36.6667 27.7501 34.4167 30.0001 31.6667 30.0001Z" fill="white"/>
</svg>
