<svg width="40" height="40" viewBox="0 0 40 40" fill="none" xmlns="http://www.w3.org/2000/svg">
<path d="M32.9633 14.1066L24.7133 22.3566C24.0882 22.9815 23.2405 23.3325 22.3566 23.3325C21.4727 23.3325 20.625 22.9815 19.9999 22.3566L10.5716 31.7849C10.8841 32.0975 11.0596 32.5213 11.0596 32.9633C11.0596 33.4052 10.8841 33.829 10.5716 34.1416L8.21661 36.4999C7.90406 36.8124 7.48021 36.9879 7.03827 36.9879C6.59633 36.9879 6.17249 36.8124 5.85994 36.4999L3.49994 34.1416C3.18749 33.829 3.01196 33.4052 3.01196 32.9633C3.01196 32.5213 3.18749 32.0975 3.49994 31.7849L5.85661 29.4283C6.16915 29.1158 6.593 28.9403 7.03494 28.9403C7.47688 28.9403 7.90073 29.1158 8.21327 29.4283L17.6433 19.9999C17.0184 19.3748 16.6673 18.5271 16.6673 17.6433C16.6673 16.7594 17.0184 15.9117 17.6433 15.2866L25.8933 7.03659L32.9633 14.1066ZM35.3199 11.7499L28.2499 4.67992L29.4283 3.50159C30.0534 2.87669 30.9011 2.52563 31.7849 2.52563C32.6688 2.52563 33.5165 2.87669 34.1416 3.50159L36.4999 5.85826C37.1248 6.48335 37.4759 7.33104 37.4759 8.21492C37.4759 9.0988 37.1248 9.9465 36.4999 10.5716L35.3216 11.7499H35.3199Z" fill="white"/>
</svg>
