<svg width="40" height="40" viewBox="0 0 40 40" fill="none" xmlns="http://www.w3.org/2000/svg">
<g clip-path="url(#clip0_2049_419)">
<path d="M2.5 3.49418e-05L0 2.50003L5.5 10.2025C5.73154 10.5269 6.03727 10.7912 6.3917 10.9734C6.74612 11.1556 7.13898 11.2505 7.5375 11.25H7.7125C8.0412 11.2498 8.36672 11.3143 8.67044 11.44C8.97416 11.5657 9.25011 11.7501 9.4825 11.9825L16.17 18.67L9.6275 25.305C8.50848 24.9756 7.3281 24.9115 6.17999 25.1178C5.03188 25.3241 3.94763 25.795 3.01325 26.4933C2.07886 27.1916 1.32005 28.098 0.797009 29.1407C0.273966 30.1834 0.0010805 31.3335 0 32.5C0.00149866 33.5749 0.234009 34.6369 0.681779 35.614C1.12955 36.5911 1.78211 37.4606 2.59527 38.1635C3.40842 38.8664 4.36315 39.3864 5.39479 39.6881C6.42643 39.9898 7.51086 40.0662 8.57462 39.9122C9.63838 39.7582 10.6566 39.3773 11.5603 38.7954C12.464 38.2135 13.2321 37.4442 13.8125 36.5395C14.3929 35.6349 14.7721 34.616 14.9244 33.552C15.0766 32.488 14.9984 31.4037 14.695 30.3725L21.33 23.83L23.75 26.25L22.9875 28.535C22.841 28.9755 22.82 29.448 22.9268 29.8997C23.0337 30.3514 23.2642 30.7644 23.5925 31.0925L31.7675 39.2675C31.9991 39.5005 32.2745 39.6854 32.5779 39.8115C32.8812 39.9377 33.2065 40.0026 33.535 40.0026C33.8635 40.0026 34.1888 39.9377 34.4921 39.8115C34.7955 39.6854 35.0709 39.5005 35.3025 39.2675L39.2675 35.3025C39.5005 35.0709 39.6853 34.7955 39.8115 34.4922C39.9376 34.1888 40.0026 33.8636 40.0026 33.535C40.0026 33.2065 39.9376 32.8812 39.8115 32.5779C39.6853 32.2746 39.5005 31.9992 39.2675 31.7675L31.0925 23.5925C30.7644 23.2642 30.3514 23.0337 29.8997 22.9269C29.448 22.82 28.9754 22.841 28.535 22.9875L26.25 23.75L23.85 21.35L30.55 14.7425C31.6615 15.0392 32.8262 15.0767 33.9545 14.8521C35.0827 14.6274 36.1443 14.1467 37.0574 13.4469C37.9704 12.7471 38.7106 11.847 39.2208 10.8159C39.731 9.78488 39.9976 8.65042 40 7.50003C40 6.82754 39.9125 6.17503 39.745 5.55754L34.395 10.91L30 10L29.09 5.60753L34.4425 0.255035C33.1692 -0.0873119 31.8282 -0.0879509 30.5546 0.253182C29.281 0.594315 28.1199 1.26516 27.1882 2.19811C26.2565 3.13105 25.5873 4.29312 25.2479 5.56717C24.9085 6.84122 24.9109 8.18224 25.255 9.45504L18.655 16.15L11.9825 9.48253C11.5136 9.0138 11.2501 8.37802 11.25 7.71503V7.53754C11.25 7.13944 11.155 6.74708 10.9728 6.39312C10.7906 6.03916 10.5265 5.73383 10.2025 5.50253L2.5 3.49418e-05ZM26.615 26.615C26.7311 26.4986 26.8691 26.4063 27.0209 26.3433C27.1728 26.2802 27.3356 26.2478 27.5 26.2478C27.6644 26.2478 27.8272 26.2802 27.9791 26.3433C28.1309 26.4063 28.2689 26.4986 28.385 26.615L35.67 33.9025C35.8977 34.1383 36.0237 34.454 36.0208 34.7818C36.018 35.1095 35.8865 35.423 35.6548 35.6548C35.423 35.8866 35.1095 36.018 34.7818 36.0209C34.454 36.0237 34.1383 35.8977 33.9025 35.67L26.615 28.385C26.4986 28.2689 26.4062 28.131 26.3432 27.9791C26.2802 27.8273 26.2478 27.6645 26.2478 27.5C26.2478 27.3356 26.2802 27.1728 26.3432 27.021C26.4062 26.8691 26.4986 26.7311 26.615 26.615ZM7.5 27.5L8.6775 28.105L10 28.17L10.7175 29.2825L11.83 30L11.895 31.3225L12.5 32.5L11.895 33.6775L11.83 35L10.7175 35.7175L10 36.83L8.6775 36.895L7.5 37.5L6.3225 36.895L5 36.83L4.2825 35.7175L3.17 35L3.105 33.6775L2.5 32.5L3.105 31.3225L3.17 30L4.2825 29.2825L5 28.17L6.3225 28.105L7.5 27.5Z" fill="white"/>
</g>
<defs>
<clipPath id="clip0_2049_419">
<rect width="40" height="40" fill="white"/>
</clipPath>
</defs>
</svg>
