<svg width="40" height="40" viewBox="0 0 40 40" fill="none" xmlns="http://www.w3.org/2000/svg">
<g clip-path="url(#clip0_2049_424)">
<path d="M40 11.2501C40.0018 12.9455 39.6197 14.6193 38.8823 16.1459C38.145 17.6726 37.0715 19.0125 35.7425 20.0651L32.5 12.5001L39.8975 9.7251C39.965 10.2251 40 10.7326 40 11.2501Z" fill="white"/>
<path d="M28.75 22.5C30.3825 22.5 31.9325 22.1525 33.3325 21.525L30 13.75L27.5 7.49998L37.065 3.67498C35.3023 1.73955 32.9199 0.4794 30.328 0.111609C27.7362 -0.256183 25.0972 0.291405 22.8657 1.66005C20.6342 3.0287 18.9498 5.13271 18.1027 7.60967C17.2556 10.0866 17.2989 12.7815 18.225 15.23L2.93498 27.97C2.24592 28.5445 1.68414 29.2563 1.28545 30.06C0.886764 30.8637 0.659922 31.7417 0.619388 32.6379C0.578853 33.5341 0.725516 34.429 1.05002 35.2654C1.37453 36.1018 1.86977 36.8614 2.50415 37.4958C3.13853 38.1302 3.89815 38.6254 4.73455 38.9499C5.57096 39.2744 6.46581 39.4211 7.36205 39.3806C8.25829 39.34 9.13625 39.1132 9.93995 38.7145C10.7436 38.3158 11.4555 37.754 12.03 37.065L24.77 21.775C26.0418 22.2557 27.3904 22.5014 28.75 22.5ZM25.52 11.5975L24.03 13.83L26.0525 13.155C26.1764 13.1131 26.3104 13.1112 26.4355 13.1496C26.5605 13.1879 26.6705 13.2645 26.7497 13.3686C26.8289 13.4727 26.8735 13.599 26.8772 13.7298C26.8808 13.8605 26.8433 13.9891 26.77 14.0975L25.28 16.33L27.3025 15.655L27.6975 16.8425L23.9475 18.0925C23.8239 18.1337 23.6905 18.1353 23.566 18.097C23.4414 18.0586 23.332 17.9824 23.2529 17.8788C23.1739 17.7752 23.1292 17.6495 23.125 17.5193C23.1209 17.3891 23.1576 17.2608 23.23 17.1525L24.72 14.92L22.6975 15.595C22.5735 15.6368 22.4396 15.6387 22.3145 15.6004C22.1894 15.5621 22.0795 15.4855 22.0003 15.3814C21.921 15.2773 21.8764 15.151 21.8728 15.0202C21.8692 14.8894 21.9066 14.7608 21.98 14.6525L23.47 12.42L21.4475 13.095L21.0525 11.9075L24.8025 10.6575C24.9261 10.6163 25.0595 10.6147 25.184 10.653C25.3085 10.6913 25.418 10.7676 25.497 10.8712C25.5761 10.9747 25.6208 11.1004 25.6249 11.2306C25.629 11.3609 25.5923 11.4891 25.52 11.5975ZM7.49998 35C6.83694 35 6.20105 34.7366 5.73221 34.2677C5.26337 33.7989 4.99998 33.163 4.99998 32.5C4.99998 31.8369 5.26337 31.2011 5.73221 30.7322C6.20105 30.2634 6.83694 30 7.49998 30C8.16302 30 8.7989 30.2634 9.26775 30.7322C9.73659 31.2011 9.99998 31.8369 9.99998 32.5C9.99998 33.163 9.73659 33.7989 9.26775 34.2677C8.7989 34.7366 8.16302 35 7.49998 35Z" fill="white"/>
</g>
<defs>
<clipPath id="clip0_2049_424">
<rect width="40" height="40" fill="white"/>
</clipPath>
</defs>
</svg>
